<svg width="16" height="16" viewBox="0 0 16 16" fill="none" xmlns="http://www.w3.org/2000/svg">
<path d="M1.13089 4.79802L1.50487 4.75001C1.67588 4.72785 1.84047 4.67221 1.98864 4.58647C2.1368 4.50072 2.26546 4.38666 2.36678 4.25121C2.46811 4.11576 2.53999 3.96174 2.57808 3.79852C2.61616 3.63529 2.61964 3.46626 2.58831 3.30169L2.50581 2.94962C2.46186 2.72087 2.48558 2.48473 2.57421 2.26852C2.66286 2.0523 2.8128 1.86485 3.00669 1.72784C3.20058 1.59083 3.43051 1.50987 3.66986 1.49433C3.90921 1.47878 4.14821 1.52929 4.35921 1.64L4.75518 1.84804C4.9014 1.92558 5.06195 1.9744 5.22764 1.9917C5.39333 2.009 5.56091 1.99444 5.7208 1.94886C5.88068 1.90328 6.02973 1.82756 6.15942 1.72605C6.2891 1.62454 6.39688 1.49922 6.47659 1.35727L6.90556 0.639779C7.01471 0.446127 7.17558 0.284539 7.37129 0.17197C7.567 0.0594006 7.79034 0 8.01787 0C8.24541 0 8.46875 0.0594006 8.66446 0.17197C8.86017 0.284539 9.02104 0.446127 9.13019 0.639779L9.52341 1.35727C9.60312 1.49922 9.7109 1.62454 9.84059 1.72605C9.97027 1.82756 10.1193 1.90328 10.2792 1.94886C10.4391 1.99444 10.6067 2.009 10.7724 1.9917C10.938 1.9744 11.0986 1.92558 11.2448 1.84804L11.6408 1.64C11.8521 1.52621 12.0924 1.47322 12.3336 1.48726C12.5749 1.5013 12.807 1.58179 13.0027 1.71928C13.1984 1.85676 13.3497 2.04554 13.4387 2.26347C13.5277 2.48139 13.5507 2.71942 13.5052 2.94962L13.4364 3.3097C13.4051 3.47427 13.4086 3.64329 13.4467 3.80652C13.4848 3.96974 13.5566 4.12376 13.658 4.25921C13.7593 4.39466 13.8879 4.50872 14.0361 4.59447C14.1843 4.68021 14.3489 4.73586 14.5199 4.75801L14.8801 4.79802C15.1214 4.82647 15.3493 4.92134 15.5368 5.07141C15.7243 5.22148 15.8636 5.42048 15.9382 5.64489C16.0128 5.86931 16.0197 6.10975 15.9579 6.3378C15.8961 6.56585 15.7683 6.77198 15.5896 6.93182L15.3146 7.18254C15.1895 7.29813 15.0898 7.43717 15.0218 7.59122C14.9537 7.74528 14.9186 7.91114 14.9186 8.07874C14.9186 8.24635 14.9537 8.4122 15.0218 8.56626C15.0898 8.72031 15.1895 8.85935 15.3146 8.97494L15.5896 9.22566C15.7682 9.38533 15.896 9.59124 15.958 9.81909C16.0199 10.0469 16.0133 10.2872 15.939 10.5115C15.8647 10.7359 15.7258 10.9349 15.5386 11.0852C15.3515 11.2354 15.124 11.3306 14.8829 11.3595L14.5089 11.4048C14.3379 11.427 14.1733 11.4826 14.0251 11.5683C13.8769 11.6541 13.7483 11.7682 13.647 11.9036C13.5456 12.0391 13.4738 12.1931 13.4357 12.3563C13.3976 12.5195 13.3941 12.6885 13.4254 12.8531L13.5052 13.1972C13.5507 13.4274 13.5277 13.6654 13.4387 13.8833C13.3497 14.1013 13.1984 14.2901 13.0027 14.4275C12.807 14.565 12.5749 14.6455 12.3336 14.6595C12.0924 14.6736 11.8521 14.6206 11.6408 14.5068L11.2036 14.2748C10.9153 14.1226 10.5773 14.0848 10.2609 14.1694C9.94447 14.2539 9.67418 14.4543 9.50691 14.7282L9.10544 15.3977C8.99321 15.5812 8.83367 15.7333 8.6425 15.8389C8.45133 15.9445 8.23512 16 8.01512 16C7.79513 16 7.57892 15.9445 7.38775 15.8389C7.19658 15.7333 7.03704 15.5812 6.92481 15.3977L6.51509 14.7282C6.34782 14.4543 6.07753 14.2539 5.76109 14.1694C5.44466 14.0848 5.10674 14.1226 4.81843 14.2748L4.38121 14.5068C4.16968 14.6238 3.92797 14.6793 3.68485 14.6668C3.44172 14.6543 3.20742 14.5743 3.00983 14.4363C2.81224 14.2983 2.65969 14.1082 2.57034 13.8885C2.48098 13.6688 2.45858 13.4289 2.50581 13.1972L2.57456 12.8344C2.60589 12.6699 2.60241 12.5009 2.56433 12.3376C2.52625 12.1744 2.45436 12.0204 2.35303 11.8849C2.25171 11.7495 2.12305 11.6354 1.97489 11.5497C1.82672 11.4639 1.66214 11.4083 1.49112 11.3861L1.11714 11.3408C0.876047 11.3119 0.648503 11.2167 0.461367 11.0665C0.274231 10.9162 0.135313 10.7172 0.0610132 10.4929C-0.0132866 10.2685 -0.0198689 10.0283 0.0420456 9.80042C0.103959 9.57257 0.231784 9.36666 0.410432 9.20699L0.685416 8.95627C0.810543 8.84068 0.91016 8.70164 0.978228 8.54759C1.0463 8.39353 1.08139 8.22767 1.08139 8.06007C1.08139 7.89247 1.0463 7.72661 0.978228 7.57255C0.91016 7.4185 0.810543 7.27946 0.685416 7.16387L0.410432 6.91315C0.237335 6.75173 0.11483 6.54611 0.0570583 6.32004C-0.000713348 6.09397 0.0086031 5.85667 0.0839329 5.63551C0.159262 5.41436 0.297534 5.21838 0.482786 5.07019C0.668038 4.922 0.892717 4.82765 1.13089 4.79802Z" fill="#131312"/>
<path d="M10.7554 4.7981C10.8638 4.79855 10.9697 4.83007 11.0597 4.88872C11.1497 4.94736 11.2199 5.03051 11.2613 5.12771C11.3027 5.22491 11.3136 5.33182 11.2926 5.43501C11.2716 5.53819 11.2196 5.63304 11.1431 5.70764L5.64342 11.0421C5.53821 11.1295 5.40288 11.1752 5.26446 11.17C5.12605 11.1648 4.99475 11.1092 4.8968 11.0142C4.79886 10.9192 4.74148 10.7918 4.73613 10.6575C4.73078 10.5233 4.77786 10.392 4.86796 10.29C10.8379 4.4967 10.4309 4.7981 10.7554 4.7981Z" fill="white"/>
<path d="M5.80564 3.99779C6.18635 3.99779 6.5585 4.10729 6.87505 4.31244C7.1916 4.5176 7.43831 4.8092 7.58401 5.15036C7.7297 5.49152 7.76782 5.86693 7.69354 6.22911C7.61927 6.59128 7.43594 6.92396 7.16674 7.18508C6.89754 7.44619 6.55456 7.62402 6.18117 7.69606C5.80777 7.7681 5.42074 7.73112 5.06902 7.58981C4.71729 7.4485 4.41666 7.20919 4.20515 6.90215C3.99364 6.59511 3.88075 6.23413 3.88075 5.86486C3.88075 5.36968 4.08355 4.89478 4.44454 4.54464C4.80552 4.19449 5.29513 3.99779 5.80564 3.99779ZM5.80564 6.66503C5.9688 6.66503 6.1283 6.6181 6.26396 6.53018C6.39962 6.44226 6.50536 6.31728 6.5678 6.17107C6.63023 6.02486 6.64657 5.86397 6.61474 5.70875C6.58291 5.55353 6.50434 5.41096 6.38897 5.29905C6.2736 5.18714 6.1266 5.11093 5.96658 5.08006C5.80655 5.04919 5.64068 5.06503 5.48994 5.12559C5.3392 5.18616 5.21036 5.28872 5.11972 5.42031C5.02907 5.55189 4.98069 5.7066 4.98069 5.86486C4.98069 6.07708 5.0676 6.28061 5.22231 6.43067C5.37702 6.58073 5.58685 6.66503 5.80564 6.66503Z" fill="white"/>
<path d="M10.2054 8.26536C10.5861 8.26536 10.9583 8.37486 11.2748 8.58002C11.5914 8.78518 11.8381 9.07677 11.9838 9.41794C12.1295 9.7591 12.1676 10.1345 12.0933 10.4967C12.0191 10.8589 11.8357 11.1915 11.5665 11.4527C11.2973 11.7138 10.9543 11.8916 10.5809 11.9636C10.2076 12.0357 9.82052 11.9987 9.4688 11.8574C9.11707 11.7161 8.81644 11.4768 8.60493 11.1697C8.39342 10.8627 8.28053 10.5017 8.28053 10.1324C8.28053 9.63726 8.48333 9.16236 8.84432 8.81221C9.2053 8.46207 9.69491 8.26536 10.2054 8.26536ZM10.2054 10.9326C10.3686 10.9326 10.5281 10.8857 10.6637 10.7978C10.7994 10.7098 10.9051 10.5849 10.9676 10.4386C11.03 10.2924 11.0464 10.1315 11.0145 9.97633C10.9827 9.82111 10.9041 9.67853 10.7887 9.56663C10.6734 9.45472 10.5264 9.37851 10.3664 9.34764C10.2063 9.31676 10.0405 9.33261 9.88972 9.39317C9.73898 9.45373 9.61014 9.55629 9.5195 9.68788C9.42885 9.81947 9.38047 9.97418 9.38047 10.1324C9.38047 10.3447 9.46738 10.5482 9.62209 10.6982C9.7768 10.8483 9.98663 10.9326 10.2054 10.9326Z" fill="white"/>
</svg>
